<?xml version="1.0" encoding="utf-8"?>
<!-- Svg Vector Icons : http://www.onlinewebfonts.com/icon -->
<!DOCTYPE svg PUBLIC "-//W3C//DTD SVG 1.1//EN" "http://www.w3.org/Graphics/SVG/1.1/DTD/svg11.dtd">
<svg version="1.1" xmlns="http://www.w3.org/2000/svg" xmlns:xlink="http://www.w3.org/1999/xlink" x="0px" y="0px" viewBox="0 0 256 256" enable-background="new 0 0 256 256" xml:space="preserve">
<metadata> Svg Vector Icons : http://www.onlinewebfonts.com/icon </metadata>
<g><g><g><path fill="#000000" d="M116.6,10.3C88.8,13.1,64,24.9,44.4,44.5c-18.8,18.8-29.9,41.5-33.9,69c-0.4,2.5-0.6,8.5-0.6,14.8c0,8.6,0.2,11.8,1,17.1c2.1,13.1,5.4,23.6,11.2,35.3c11.5,23.2,29.8,41.6,53.1,53.1c11.6,5.8,22.4,9.2,35.3,11.2c9.2,1.4,25.4,1.4,34.6,0c19.9-3.1,38-10.7,54.1-22.8c5.8-4.3,18.4-16.9,22.7-22.7c12.1-16.2,19.5-33.8,22.8-53.9c1.2-7.5,1.5-25.2,0.5-32.1c-2.8-19.2-8.7-35.1-18.8-50.6c-4.1-6.2-8.7-11.9-14.7-18c-18.4-18.6-40.7-29.9-67.3-34C138.8,10.1,122.6,9.6,116.6,10.3z M143,21.6c35.8,5.4,65.8,27.2,81.5,59.1c7.5,15.3,10.9,29.9,10.9,47.4c0,10.7-0.7,16.8-3.2,26.6c-9.5,37.8-39.8,68.1-77.6,77.6c-9.8,2.4-15.8,3.2-26.6,3.2c-10.8,0-17-0.7-26.6-3.2c-38-9.7-67.8-39.5-77.5-77.5c-2.4-9.7-3.2-15.8-3.2-26.6s0.7-16.9,3.2-26.6c7-27.6,24.4-50.9,49.2-65.8c13.4-8.1,28.6-13,45.3-14.8C123.6,20.3,137.3,20.7,143,21.6z"/><path fill="#000000" d="M109.3,37.8C91.8,42.2,76,51.3,63.7,64.1c-3.8,3.9-7.8,8.7-8.9,10.6c-0.2,0.3,0.4,1.1,1.7,1.9l2,1.3l2.5-3.3c3.3-4.4,11.3-12.4,15.9-15.9c11.1-8.4,23.1-14,36.4-17c1.2-0.3,1.3-0.4,1-2.3C113.8,36.6,113.8,36.6,109.3,37.8z"/><path fill="#000000" d="M153.2,37.1c-3.7,0.6-8.1,2.7-10.5,5.1c-2.5,2.6-4.9,7.5-6,12.9c-0.8,3.7-1,6.5-1.2,19.6L135.3,90l3,0.8c14.8,3.7,25.4,16.2,27,31.7l0.3,3.3l3.9-3c5.2-3.9,11.7-10.4,14.7-14.8c14.3-20.9,12.6-47.8-4.2-62.9c-3.2-2.9-9.6-6.3-13.8-7.4C162.8,36.9,156.5,36.6,153.2,37.1z"/><path fill="#000000" d="M110.6,52.9c-12.7,4.6-24.2,11.8-33.9,21.2c-2.6,2.6-5.4,5.4-6.1,6.4l-1.3,1.7l1.8,1.5l1.9,1.5l4.1-4.4c9.7-10.3,23-19,35.8-23.4l4.3-1.5l-0.7-2.3c-0.4-1.2-1-2.3-1.2-2.3C115,51.4,113,52.1,110.6,52.9z"/><path fill="#000000" d="M73.9,95c-12.6,2.4-23.8,8.8-31,17.7c-11.2,13.9-12.7,30.7-3.8,43.9c5.6,8.4,12.7,11.8,20.9,10.1c6.8-1.5,12.9-5,27.2-15.6c4.6-3.4,8.9-6.5,9.5-6.9l1.1-0.7l-1.4-3.2c-0.8-1.8-1.8-4.7-2.2-6.5c-1-4.3-0.9-11.7,0-16c1.4-6.1,5.3-13.3,9.6-17.4c0.9-0.9,1.7-1.8,1.7-1.9c0-0.4-4.3-1.7-9.3-2.8C90.3,94.4,78.8,94.1,73.9,95z"/><path fill="#000000" d="M123.8,97.8c-2,0.4-5,1.4-7.2,2.5c-14.2,7.1-19.9,24-12.8,38.3c2.4,4.9,7.8,10.3,12.7,12.7c11.7,5.8,25.5,3.1,34-6.4c9.2-10.4,9.8-25.2,1.3-36.6c-3.4-4.6-9.8-8.8-15.6-10.2C132.5,97.2,127.5,97.1,123.8,97.8z M134.8,116.8c4.4,2.7,6.2,8.3,4.2,13c-1.8,4.1-5.4,6.6-9.7,6.6c-8.8,0-13.7-9.9-8.5-17C124.1,115.1,130.2,113.9,134.8,116.8z"/><path fill="#000000" d="M215.4,98.5c-0.8,0.3-1.5,0.6-1.5,0.8s0.6,2.8,1.4,5.8c4.7,18.7,3.4,38.8-3.8,56.3c-1,2.5-1.8,4.6-1.7,4.7c0.5,0.4,4.2,2.2,4.3,2c0.5-0.5,3.6-8.7,4.8-12.6c5-16.3,5.5-34.5,1.4-50.8C218.5,97.4,218.6,97.5,215.4,98.5z"/><path fill="#000000" d="M200.6,106.4c-1.1,0.3-1.5,0.6-1.3,1.2c1.3,4.5,2.6,15.4,2.6,21.6c0,7.7-1.7,18.5-3.9,25.9c-0.6,2-1.2,3.9-1.2,4.2c0,0.4,4.2,2.2,4.4,1.8c0.3-0.3,2.2-6.6,3-9.8c3.3-13.5,3.5-29.1,0.4-43.1C204,105.6,203.7,105.5,200.6,106.4z"/><path fill="#000000" d="M154.2,151.8c-1.8,2-6.6,5.2-10.2,6.8c-9,4.1-20.5,4.2-29.7,0.1c-1.5-0.6-2.8-1.2-2.9-1.1c-0.3,0.3,0.7,10.4,1.4,14.1c2.3,12.1,7.8,22.2,16.7,30.6c6.8,6.4,15.1,10.7,23.9,12.3c5.2,1,14.1,0.6,18.5-0.8c8.7-2.8,15.4-8.1,19.9-15.9c5-8.9,3.8-16.7-3.6-24.5c-4.1-4.3-9.1-8-19.4-14.4c-4.5-2.8-9.3-5.8-10.6-6.7c-1.4-0.9-2.6-1.7-2.8-1.7C155.5,150.6,154.9,151.2,154.2,151.8z"/><path fill="#000000" d="M68.1,174.8l-1.7,1.6l0.9,1.3c1,1.4,6.4,6.4,10.5,9.7c8.5,6.8,19.5,12.7,30.9,16.3c2.4,0.8,4.7,1.4,4.9,1.4c0.4,0,1.4-2.9,1.4-4.2c0-0.5-0.7-0.9-2.3-1.2c-5.7-1.3-16.5-6.1-23.4-10.3c-4.8-3-10.1-7.2-15-11.9l-4.5-4.3L68.1,174.8z"/><path fill="#000000" d="M56.1,183c-1.1,0.8-2,1.5-2,1.6c0,0.4,5,6.3,8.3,9.6c12.7,13.2,30,22.8,47.5,26.6c4.8,1,4.4,1.2,5-2.3l0.3-1.7l-4.6-1.1c-20.2-4.7-38.5-16.3-51.4-32.7l-1.2-1.4L56.1,183z"/></g></g></g>
</svg>